<mxfile host="65bd71144e">
    <diagram id="Gj0QMa6FQJ6OdaJbOvxK" name="Seite-1">
        <mxGraphModel dx="1585" dy="1687" grid="1" gridSize="10" guides="1" tooltips="1" connect="1" arrows="1" fold="1" page="1" pageScale="1" pageWidth="827" pageHeight="1169" math="0" shadow="0">
            <root>
                <mxCell id="0"/>
                <mxCell id="1" parent="0"/>
                <mxCell id="2" value="Wald" style="whiteSpace=wrap;html=1;align=center;" vertex="1" parent="1">
                    <mxGeometry x="160" y="60" width="100" height="40" as="geometry"/>
                </mxCell>
                <mxCell id="3" value="LFDNR" style="ellipse;whiteSpace=wrap;html=1;align=center;fontStyle=4;" vertex="1" parent="1">
                    <mxGeometry x="190" y="130" width="100" height="40" as="geometry"/>
                </mxCell>
                <mxCell id="4" value="Name" style="ellipse;whiteSpace=wrap;html=1;align=center;" vertex="1" parent="1">
                    <mxGeometry x="190" y="180" width="100" height="40" as="geometry"/>
                </mxCell>
                <mxCell id="5" value="" style="endArrow=none;html=1;rounded=0;edgeStyle=orthogonalEdgeStyle;entryX=0.25;entryY=1;entryDx=0;entryDy=0;" edge="1" parent="1" source="4" target="2">
                    <mxGeometry relative="1" as="geometry">
                        <mxPoint x="30" y="200" as="sourcePoint"/>
                        <mxPoint x="30" y="200" as="targetPoint"/>
                        <Array as="points">
                            <mxPoint x="180" y="200"/>
                            <mxPoint x="180" y="100"/>
                        </Array>
                    </mxGeometry>
                </mxCell>
                <mxCell id="6" value="" style="endArrow=none;html=1;rounded=0;edgeStyle=orthogonalEdgeStyle;entryX=0.25;entryY=1;entryDx=0;entryDy=0;" edge="1" parent="1" source="3" target="2">
                    <mxGeometry relative="1" as="geometry">
                        <mxPoint x="30" y="150" as="sourcePoint"/>
                        <mxPoint x="30" y="150" as="targetPoint"/>
                        <Array as="points">
                            <mxPoint x="180" y="150"/>
                            <mxPoint x="180" y="100"/>
                        </Array>
                    </mxGeometry>
                </mxCell>
                <mxCell id="7" value="Zugeordnet" style="shape=rhombus;perimeter=rhombusPerimeter;whiteSpace=wrap;html=1;align=center;" vertex="1" parent="1">
                    <mxGeometry x="290" y="50" width="120" height="60" as="geometry"/>
                </mxCell>
                <mxCell id="8" value="" style="endArrow=none;html=1;rounded=0;entryX=0;entryY=0.5;entryDx=0;entryDy=0;edgeStyle=orthogonalEdgeStyle;" edge="1" parent="1" source="2" target="7">
                    <mxGeometry relative="1" as="geometry">
                        <mxPoint x="260" y="80" as="sourcePoint"/>
                        <mxPoint x="360" y="80" as="targetPoint"/>
                    </mxGeometry>
                </mxCell>
                <mxCell id="9" value="n" style="resizable=0;html=1;align=left;verticalAlign=bottom;" connectable="0" vertex="1" parent="8">
                    <mxGeometry x="-1" relative="1" as="geometry"/>
                </mxCell>
                <mxCell id="11" value="Ort" style="whiteSpace=wrap;html=1;align=center;" vertex="1" parent="1">
                    <mxGeometry x="440" y="60" width="100" height="40" as="geometry"/>
                </mxCell>
                <mxCell id="12" value="" style="endArrow=none;html=1;rounded=0;entryX=0;entryY=0.5;entryDx=0;entryDy=0;edgeStyle=orthogonalEdgeStyle;" edge="1" parent="1" source="7" target="11">
                    <mxGeometry relative="1" as="geometry">
                        <mxPoint x="500" y="80" as="sourcePoint"/>
                        <mxPoint x="660" y="80" as="targetPoint"/>
                    </mxGeometry>
                </mxCell>
                <mxCell id="14" value="m" style="resizable=0;html=1;align=right;verticalAlign=bottom;" connectable="0" vertex="1" parent="12">
                    <mxGeometry x="1" relative="1" as="geometry"/>
                </mxCell>
                <mxCell id="15" value="hat" style="shape=rhombus;perimeter=rhombusPerimeter;whiteSpace=wrap;html=1;align=center;" vertex="1" parent="1">
                    <mxGeometry x="20" y="50" width="120" height="60" as="geometry"/>
                </mxCell>
                <mxCell id="16" value="Eigentümer" style="whiteSpace=wrap;html=1;align=center;" vertex="1" parent="1">
                    <mxGeometry x="-100" y="60" width="100" height="40" as="geometry"/>
                </mxCell>
                <mxCell id="20" value="" style="endArrow=none;html=1;rounded=0;entryX=1;entryY=0.5;entryDx=0;entryDy=0;edgeStyle=orthogonalEdgeStyle;" edge="1" parent="1" source="2" target="15">
                    <mxGeometry relative="1" as="geometry">
                        <mxPoint y="80" as="sourcePoint"/>
                        <mxPoint y="80" as="targetPoint"/>
                    </mxGeometry>
                </mxCell>
                <mxCell id="21" value="n" style="resizable=0;html=1;align=left;verticalAlign=bottom;" connectable="0" vertex="1" parent="20">
                    <mxGeometry x="-1" relative="1" as="geometry">
                        <mxPoint x="-10" as="offset"/>
                    </mxGeometry>
                </mxCell>
                <mxCell id="23" value="" style="endArrow=none;html=1;rounded=0;entryX=0;entryY=0.5;entryDx=0;entryDy=0;" edge="1" parent="1" source="16" target="15">
                    <mxGeometry relative="1" as="geometry">
                        <mxPoint x="-190" y="80" as="sourcePoint"/>
                        <mxPoint x="-30" y="80" as="targetPoint"/>
                    </mxGeometry>
                </mxCell>
                <mxCell id="24" value="1" style="resizable=0;html=1;align=left;verticalAlign=bottom;" connectable="0" vertex="1" parent="23">
                    <mxGeometry x="-1" relative="1" as="geometry"/>
                </mxCell>
                <mxCell id="26" value="Bäume" style="whiteSpace=wrap;html=1;align=center;" vertex="1" parent="1">
                    <mxGeometry x="147.5" y="-210" width="100" height="40" as="geometry"/>
                </mxCell>
                <mxCell id="27" value="Bezeichnung" style="ellipse;whiteSpace=wrap;html=1;align=center;" vertex="1" parent="1">
                    <mxGeometry x="172.5" y="-270" width="100" height="40" as="geometry"/>
                </mxCell>
                <mxCell id="29" value="Typ" style="ellipse;whiteSpace=wrap;html=1;align=center;" vertex="1" parent="1">
                    <mxGeometry x="172.5" y="-370" width="100" height="40" as="geometry"/>
                </mxCell>
                <mxCell id="30" value="max. Höhe" style="ellipse;whiteSpace=wrap;html=1;align=center;" vertex="1" parent="1">
                    <mxGeometry x="172.5" y="-320" width="100" height="40" as="geometry"/>
                </mxCell>
                <mxCell id="34" value="" style="endArrow=none;html=1;rounded=0;entryX=0;entryY=0;entryDx=0;entryDy=0;edgeStyle=orthogonalEdgeStyle;" edge="1" parent="1" source="27" target="26">
                    <mxGeometry relative="1" as="geometry">
                        <mxPoint x="-12.5" y="-390" as="sourcePoint"/>
                        <mxPoint x="-12.5" y="-390" as="targetPoint"/>
                        <Array as="points">
                            <mxPoint x="147.5" y="-250"/>
                        </Array>
                    </mxGeometry>
                </mxCell>
                <mxCell id="35" value="" style="endArrow=none;html=1;rounded=0;edgeStyle=orthogonalEdgeStyle;entryX=0;entryY=0;entryDx=0;entryDy=0;" edge="1" parent="1" source="30" target="26">
                    <mxGeometry relative="1" as="geometry">
                        <mxPoint x="12.5" y="-300" as="sourcePoint"/>
                        <mxPoint x="12.5" y="-300" as="targetPoint"/>
                        <Array as="points">
                            <mxPoint x="147.5" y="-300"/>
                        </Array>
                    </mxGeometry>
                </mxCell>
                <mxCell id="36" value="" style="endArrow=none;html=1;rounded=0;entryX=0;entryY=0;entryDx=0;entryDy=0;edgeStyle=orthogonalEdgeStyle;" edge="1" parent="1" source="29" target="26">
                    <mxGeometry relative="1" as="geometry">
                        <mxPoint x="12.5" y="-350" as="sourcePoint"/>
                        <mxPoint x="12.5" y="-350" as="targetPoint"/>
                        <Array as="points">
                            <mxPoint x="147.5" y="-350"/>
                        </Array>
                    </mxGeometry>
                </mxCell>
                <mxCell id="37" value="hat" style="shape=rhombus;perimeter=rhombusPerimeter;whiteSpace=wrap;html=1;align=center;" vertex="1" parent="1">
                    <mxGeometry x="150" y="-30" width="120" height="60" as="geometry"/>
                </mxCell>
                <mxCell id="38" value="" style="endArrow=none;html=1;rounded=0;entryX=0.5;entryY=1;entryDx=0;entryDy=0;" edge="1" parent="1" source="2" target="37">
                    <mxGeometry relative="1" as="geometry">
                        <mxPoint x="210" y="-100" as="sourcePoint"/>
                        <mxPoint x="290" y="-30" as="targetPoint"/>
                    </mxGeometry>
                </mxCell>
                <mxCell id="39" value="n" style="resizable=0;html=1;align=left;verticalAlign=bottom;" connectable="0" vertex="1" parent="38">
                    <mxGeometry x="-1" relative="1" as="geometry"/>
                </mxCell>
                <mxCell id="41" value="" style="endArrow=none;html=1;rounded=0;entryX=0.5;entryY=1;entryDx=0;entryDy=0;edgeStyle=orthogonalEdgeStyle;" edge="1" parent="1" source="37" target="26">
                    <mxGeometry relative="1" as="geometry">
                        <mxPoint x="210" y="-190" as="sourcePoint"/>
                        <mxPoint x="210" y="-190" as="targetPoint"/>
                    </mxGeometry>
                </mxCell>
                <mxCell id="43" value="m" style="resizable=0;html=1;align=right;verticalAlign=bottom;" connectable="0" vertex="1" parent="41">
                    <mxGeometry x="1" relative="1" as="geometry">
                        <mxPoint y="21" as="offset"/>
                    </mxGeometry>
                </mxCell>
            </root>
        </mxGraphModel>
    </diagram>
</mxfile>